<?xml version="1.0" encoding="utf-8"?>
<!-- Generator: Adobe Illustrator 16.0.0, SVG Export Plug-In . SVG Version: 6.00 Build 0)  -->
<!DOCTYPE svg PUBLIC "-//W3C//DTD SVG 1.1//EN" "http://www.w3.org/Graphics/SVG/1.1/DTD/svg11.dtd">
<svg version="1.1" id="Layer_1" xmlns="http://www.w3.org/2000/svg" xmlns:xlink="http://www.w3.org/1999/xlink" x="0px" y="0px"
	 width="122px" height="37px" viewBox="0 0 122 37" enable-background="new 0 0 122 37" xml:space="preserve">
<g>
	<path fill="#000" d="M17.465,36.4c9.083,0,13.463-5.932,14.302-7.049c1.2-1.597,2.239-3.539,2.652-5.793l-7.886-0.012
		c-0.988,1.144-1.413,2.994-4.261,4.674c-6.113,3.598-14.674-1.055-14.625-9.822C7.71,7.564,20.415,3.868,25.734,12.308
		c1.247,1.976-0.912,1.44,8.691,1.432c-0.734-4.242-3.962-7.688-6.215-9.479C18.864-3.175,2.57,0.959,0.184,15.995
		c-0.554,3.492-0.179,11.085,5.714,16.07C9.59,35.188,13.648,36.4,17.465,36.4z"/>
	<path fill="#000" d="M102.498,7.786c6.33-1,10.857,3.69,11.542,9.21c0.794,6.434-2.956,11.546-8.354,12.354
		c-6.365,0.946-10.922-3.777-11.617-9.262C93.245,13.629,97.105,8.639,102.498,7.786L102.498,7.786z M122.003,0.521
		c0,0-14.128,0-16.386,0c-5.774-0.013-10.555,1.177-14.71,5.706c-1.302,1.421-2.479,2.948-3.394,5.117
		c-1.935,4.598-1.893,9.671,0.069,14.253c1.542,3.481,3.821,5.799,5.6,7.133c2.271,1.786,6.099,3.663,10.869,3.663
		c4.862,0,9.12-1.783,12.587-5.16c2.127-2.092,3.844-4.86,4.688-7.916c0.677-2.535,0.677-3.52,0.677-6.909"/>
	<path fill="#000" d="M67.075,36.408c3.237,0,6.909-0.768,10.37-3.368c1.961-1.446,4.539-3.962,6.049-8.069l-8.277,0.008
		c-1.173,3.174-6.248,5.142-10.23,4.117c-3.312-0.842-7.063-4.063-7.453-7.671h26.583c0.923-3.389-0.306-8.603-1.667-11.271
		c-3.256-6.387-9.723-10.067-17.11-9.377c-4.243,0.395-6.925,2.046-9.429,4.026c-7.46,5.897-8.29,19.236-1.659,26.057
		c1.852,1.839,3.312,3.015,6.06,4.207C63.094,36.203,65.261,36.408,67.075,36.408z M57.726,14.639
		c0.011-1.49,2.436-4.19,3.225-4.793c8.109-6.172,15.22,2.136,15.217,4.814L57.726,14.639z"/>
	<g>
		<path fill="#000" d="M51.19,36.428v-7.054c-3.223,0.008-6.866-0.097-7.016-3.499c-0.001-1.922-0.001-4.047-0.014-9.5
			c-0.014-5.884-0.045-13.73-0.035-15.137h-7.851c-0.122,2.137-0.069,7.481-0.035,13.402l-0.085,6.672
			c-0.007,1.453-0.169,6.672,0.877,9.118c0,0,1.457,3.923,5.489,5.134C46.313,36.703,51.19,36.428,51.19,36.428z"/>
	</g>
</g>
</svg>
